<svg width="17" height="16" viewBox="0 0 17 16" fill="none" xmlns="http://www.w3.org/2000/svg">
<path d="M14.9 7.99996C14.8995 4.59548 12.2337 1.78729 8.83388 1.60968C5.43403 1.43207 2.4902 3.94722 2.13494 7.33311C1.77967 10.719 4.13733 13.7904 7.49999 14.3224L7.49999 9.84996H5.87519V7.99996L7.49999 7.99996L7.49999 6.58996C7.49999 4.98596 8.45559 4.09996 9.91719 4.09996C10.3972 4.10662 10.8761 4.14833 11.35 4.22476V5.79996H10.5428C10.2642 5.76295 9.98382 5.85468 9.78095 6.04922C9.57808 6.24377 9.47469 6.52002 9.49999 6.79996V7.99996L11.2752 7.99996L10.9912 9.84996H9.49999L9.49999 14.3224C12.6103 13.8303 14.9005 11.1489 14.9 7.99996Z" fill="#335CA6"/>
</svg>
