<svg width="24" height="24" viewBox="0 0 24 24" fill="none" xmlns="http://www.w3.org/2000/svg">
<path d="M21.6001 6.05995C20.8801 6.35995 20.1601 6.59995 19.3201 6.65995C20.1601 6.17995 20.7601 5.39995 21.0601 4.49995C20.2801 4.97995 19.4401 5.27995 18.5401 5.45995C17.8201 4.67995 16.8001 4.19995 15.7201 4.19995C13.5601 4.19995 11.7601 5.93995 11.7601 8.15995C11.7601 8.45995 11.8201 8.75995 11.8801 9.05995C8.58009 8.87995 5.70009 7.31995 3.72009 4.91995C3.36009 5.51995 3.18009 6.17995 3.18009 6.89995C3.18009 8.27995 3.90009 9.47995 4.92009 10.2C4.26009 10.2 3.66009 10.02 3.12009 9.71995V9.77995C3.12009 11.7 4.50009 13.26 6.30009 13.62C5.94009 13.68 5.64009 13.74 5.28009 13.74C5.04009 13.74 4.80009 13.74 4.56009 13.68C5.04009 15.24 6.54009 16.38 8.22009 16.44C6.90009 17.52 5.16009 18.12 3.30009 18.12C3.00009 18.12 2.64009 18.12 2.34009 18.06C4.14009 19.14 6.24009 19.8 8.46009 19.8C15.7201 19.8 19.6801 13.8 19.6801 8.57995C19.6801 8.39995 19.6801 8.21995 19.6801 8.09995C20.4001 7.49995 21.0601 6.83995 21.6001 6.05995Z" fill="#2EBAE8"/>
</svg>
